<mxfile host="app.diagrams.net" modified="2023-12-14T16:19:49.724Z" agent="Mozilla/5.0 (Windows NT 10.0; Win64; x64) AppleWebKit/537.36 (KHTML, like Gecko) Chrome/120.0.0.0 Safari/537.36" etag="-9b9GtH5RcEl0EOQqJIE" version="22.1.8" type="device">
  <diagram name="Page-1" id="Mu4o8gBImmHwOoZ7NONG">
    <mxGraphModel dx="956" dy="545" grid="1" gridSize="10" guides="1" tooltips="1" connect="1" arrows="1" fold="1" page="1" pageScale="1" pageWidth="850" pageHeight="1100" math="0" shadow="0">
      <root>
        <mxCell id="0" />
        <mxCell id="1" parent="0" />
        <mxCell id="r1W-Itx97kBpwns0KGBR-3" value="" style="shape=table;startSize=0;container=1;collapsible=0;childLayout=tableLayout;fontSize=24;" vertex="1" parent="1">
          <mxGeometry x="240" y="520" width="240" height="240" as="geometry" />
        </mxCell>
        <mxCell id="r1W-Itx97kBpwns0KGBR-4" value="" style="shape=tableRow;horizontal=0;startSize=0;swimlaneHead=0;swimlaneBody=0;strokeColor=inherit;top=0;left=0;bottom=0;right=0;collapsible=0;dropTarget=0;fillColor=none;points=[[0,0.5],[1,0.5]];portConstraint=eastwest;fontSize=24;" vertex="1" parent="r1W-Itx97kBpwns0KGBR-3">
          <mxGeometry width="240" height="80" as="geometry" />
        </mxCell>
        <mxCell id="r1W-Itx97kBpwns0KGBR-5" value="x" style="shape=partialRectangle;html=1;whiteSpace=wrap;connectable=0;strokeColor=inherit;overflow=hidden;fillColor=none;top=0;left=0;bottom=0;right=0;pointerEvents=1;fontSize=24;" vertex="1" parent="r1W-Itx97kBpwns0KGBR-4">
          <mxGeometry width="80" height="80" as="geometry">
            <mxRectangle width="80" height="80" as="alternateBounds" />
          </mxGeometry>
        </mxCell>
        <mxCell id="r1W-Itx97kBpwns0KGBR-6" value="y" style="shape=partialRectangle;html=1;whiteSpace=wrap;connectable=0;strokeColor=inherit;overflow=hidden;fillColor=none;top=0;left=0;bottom=0;right=0;pointerEvents=1;fontSize=24;" vertex="1" parent="r1W-Itx97kBpwns0KGBR-4">
          <mxGeometry x="80" width="80" height="80" as="geometry">
            <mxRectangle width="80" height="80" as="alternateBounds" />
          </mxGeometry>
        </mxCell>
        <mxCell id="r1W-Itx97kBpwns0KGBR-7" value="x" style="shape=partialRectangle;html=1;whiteSpace=wrap;connectable=0;strokeColor=inherit;overflow=hidden;fillColor=none;top=0;left=0;bottom=0;right=0;pointerEvents=1;fontSize=24;" vertex="1" parent="r1W-Itx97kBpwns0KGBR-4">
          <mxGeometry x="160" width="80" height="80" as="geometry">
            <mxRectangle width="80" height="80" as="alternateBounds" />
          </mxGeometry>
        </mxCell>
        <mxCell id="r1W-Itx97kBpwns0KGBR-8" value="" style="shape=tableRow;horizontal=0;startSize=0;swimlaneHead=0;swimlaneBody=0;strokeColor=inherit;top=0;left=0;bottom=0;right=0;collapsible=0;dropTarget=0;fillColor=none;points=[[0,0.5],[1,0.5]];portConstraint=eastwest;fontSize=24;" vertex="1" parent="r1W-Itx97kBpwns0KGBR-3">
          <mxGeometry y="80" width="240" height="80" as="geometry" />
        </mxCell>
        <mxCell id="r1W-Itx97kBpwns0KGBR-9" value="x" style="shape=partialRectangle;html=1;whiteSpace=wrap;connectable=0;strokeColor=inherit;overflow=hidden;fillColor=none;top=0;left=0;bottom=0;right=0;pointerEvents=1;fontSize=24;" vertex="1" parent="r1W-Itx97kBpwns0KGBR-8">
          <mxGeometry width="80" height="80" as="geometry">
            <mxRectangle width="80" height="80" as="alternateBounds" />
          </mxGeometry>
        </mxCell>
        <mxCell id="r1W-Itx97kBpwns0KGBR-10" value="y" style="shape=partialRectangle;html=1;whiteSpace=wrap;connectable=0;strokeColor=inherit;overflow=hidden;fillColor=none;top=0;left=0;bottom=0;right=0;pointerEvents=1;fontSize=24;" vertex="1" parent="r1W-Itx97kBpwns0KGBR-8">
          <mxGeometry x="80" width="80" height="80" as="geometry">
            <mxRectangle width="80" height="80" as="alternateBounds" />
          </mxGeometry>
        </mxCell>
        <mxCell id="r1W-Itx97kBpwns0KGBR-11" value="y" style="shape=partialRectangle;html=1;whiteSpace=wrap;connectable=0;strokeColor=inherit;overflow=hidden;fillColor=none;top=0;left=0;bottom=0;right=0;pointerEvents=1;fontSize=24;" vertex="1" parent="r1W-Itx97kBpwns0KGBR-8">
          <mxGeometry x="160" width="80" height="80" as="geometry">
            <mxRectangle width="80" height="80" as="alternateBounds" />
          </mxGeometry>
        </mxCell>
        <mxCell id="r1W-Itx97kBpwns0KGBR-12" value="" style="shape=tableRow;horizontal=0;startSize=0;swimlaneHead=0;swimlaneBody=0;strokeColor=inherit;top=0;left=0;bottom=0;right=0;collapsible=0;dropTarget=0;fillColor=none;points=[[0,0.5],[1,0.5]];portConstraint=eastwest;fontSize=24;" vertex="1" parent="r1W-Itx97kBpwns0KGBR-3">
          <mxGeometry y="160" width="240" height="80" as="geometry" />
        </mxCell>
        <mxCell id="r1W-Itx97kBpwns0KGBR-13" value="y" style="shape=partialRectangle;html=1;whiteSpace=wrap;connectable=0;strokeColor=inherit;overflow=hidden;fillColor=none;top=0;left=0;bottom=0;right=0;pointerEvents=1;fontSize=24;" vertex="1" parent="r1W-Itx97kBpwns0KGBR-12">
          <mxGeometry width="80" height="80" as="geometry">
            <mxRectangle width="80" height="80" as="alternateBounds" />
          </mxGeometry>
        </mxCell>
        <mxCell id="r1W-Itx97kBpwns0KGBR-14" value="x" style="shape=partialRectangle;html=1;whiteSpace=wrap;connectable=0;strokeColor=inherit;overflow=hidden;fillColor=none;top=0;left=0;bottom=0;right=0;pointerEvents=1;fontSize=24;" vertex="1" parent="r1W-Itx97kBpwns0KGBR-12">
          <mxGeometry x="80" width="80" height="80" as="geometry">
            <mxRectangle width="80" height="80" as="alternateBounds" />
          </mxGeometry>
        </mxCell>
        <mxCell id="r1W-Itx97kBpwns0KGBR-15" value="y" style="shape=partialRectangle;html=1;whiteSpace=wrap;connectable=0;strokeColor=inherit;overflow=hidden;fillColor=none;top=0;left=0;bottom=0;right=0;pointerEvents=1;fontSize=24;" vertex="1" parent="r1W-Itx97kBpwns0KGBR-12">
          <mxGeometry x="160" width="80" height="80" as="geometry">
            <mxRectangle width="80" height="80" as="alternateBounds" />
          </mxGeometry>
        </mxCell>
        <mxCell id="r1W-Itx97kBpwns0KGBR-32" value="" style="group;movable=0;resizable=0;rotatable=0;deletable=0;editable=0;locked=1;connectable=0;" vertex="1" connectable="0" parent="1">
          <mxGeometry x="560" y="520" width="80" height="240" as="geometry" />
        </mxCell>
        <mxCell id="r1W-Itx97kBpwns0KGBR-33" value="&lt;font style=&quot;font-size: 24px;&quot;&gt;y&lt;/font&gt;" style="rounded=0;whiteSpace=wrap;html=1;movable=0;resizable=0;rotatable=0;deletable=0;editable=0;locked=1;connectable=0;" vertex="1" parent="r1W-Itx97kBpwns0KGBR-32">
          <mxGeometry y="160" width="80" height="80" as="geometry" />
        </mxCell>
        <mxCell id="r1W-Itx97kBpwns0KGBR-34" value="&lt;font style=&quot;font-size: 24px;&quot;&gt;x&lt;/font&gt;" style="rounded=0;whiteSpace=wrap;html=1;movable=0;resizable=0;rotatable=0;deletable=0;editable=0;locked=1;connectable=0;" vertex="1" parent="r1W-Itx97kBpwns0KGBR-32">
          <mxGeometry y="80" width="80" height="80" as="geometry" />
        </mxCell>
        <mxCell id="r1W-Itx97kBpwns0KGBR-35" value="&lt;font style=&quot;font-size: 24px;&quot;&gt;x&lt;/font&gt;" style="rounded=0;whiteSpace=wrap;html=1;movable=0;resizable=0;rotatable=0;deletable=0;editable=0;locked=1;connectable=0;" vertex="1" parent="r1W-Itx97kBpwns0KGBR-32">
          <mxGeometry width="80" height="80" as="geometry" />
        </mxCell>
        <mxCell id="r1W-Itx97kBpwns0KGBR-28" value="" style="group;movable=0;resizable=0;rotatable=0;deletable=0;editable=0;locked=1;connectable=0;" vertex="1" connectable="0" parent="1">
          <mxGeometry x="600" y="520" width="80" height="240" as="geometry" />
        </mxCell>
        <mxCell id="r1W-Itx97kBpwns0KGBR-29" value="&lt;font style=&quot;font-size: 24px;&quot;&gt;x&lt;/font&gt;" style="rounded=0;whiteSpace=wrap;html=1;movable=0;resizable=0;rotatable=0;deletable=0;editable=0;locked=1;connectable=0;" vertex="1" parent="r1W-Itx97kBpwns0KGBR-28">
          <mxGeometry y="160" width="80" height="80" as="geometry" />
        </mxCell>
        <mxCell id="r1W-Itx97kBpwns0KGBR-30" value="&lt;font style=&quot;font-size: 24px;&quot;&gt;y&lt;/font&gt;" style="rounded=0;whiteSpace=wrap;html=1;movable=0;resizable=0;rotatable=0;deletable=0;editable=0;locked=1;connectable=0;" vertex="1" parent="r1W-Itx97kBpwns0KGBR-28">
          <mxGeometry y="80" width="80" height="80" as="geometry" />
        </mxCell>
        <mxCell id="r1W-Itx97kBpwns0KGBR-31" value="&lt;font style=&quot;font-size: 24px;&quot;&gt;y&lt;/font&gt;" style="rounded=0;whiteSpace=wrap;html=1;movable=0;resizable=0;rotatable=0;deletable=0;editable=0;locked=1;connectable=0;" vertex="1" parent="r1W-Itx97kBpwns0KGBR-28">
          <mxGeometry width="80" height="80" as="geometry" />
        </mxCell>
        <mxCell id="r1W-Itx97kBpwns0KGBR-27" value="" style="group;movable=0;resizable=0;rotatable=0;deletable=0;editable=0;locked=1;connectable=0;" vertex="1" connectable="0" parent="1">
          <mxGeometry x="650" y="520" width="80" height="240" as="geometry" />
        </mxCell>
        <mxCell id="r1W-Itx97kBpwns0KGBR-24" value="&lt;font style=&quot;font-size: 24px;&quot;&gt;y&lt;/font&gt;" style="rounded=0;whiteSpace=wrap;html=1;movable=0;resizable=0;rotatable=0;deletable=0;editable=0;locked=1;connectable=0;" vertex="1" parent="r1W-Itx97kBpwns0KGBR-27">
          <mxGeometry y="160" width="80" height="80" as="geometry" />
        </mxCell>
        <mxCell id="r1W-Itx97kBpwns0KGBR-25" value="&lt;font style=&quot;font-size: 24px;&quot;&gt;y&lt;/font&gt;" style="rounded=0;whiteSpace=wrap;html=1;movable=0;resizable=0;rotatable=0;deletable=0;editable=0;locked=1;connectable=0;" vertex="1" parent="r1W-Itx97kBpwns0KGBR-27">
          <mxGeometry y="80" width="80" height="80" as="geometry" />
        </mxCell>
        <mxCell id="r1W-Itx97kBpwns0KGBR-26" value="&lt;font style=&quot;font-size: 24px;&quot;&gt;x&lt;/font&gt;" style="rounded=0;whiteSpace=wrap;html=1;movable=0;resizable=0;rotatable=0;deletable=0;editable=0;locked=1;connectable=0;" vertex="1" parent="r1W-Itx97kBpwns0KGBR-27">
          <mxGeometry width="80" height="80" as="geometry" />
        </mxCell>
        <mxCell id="r1W-Itx97kBpwns0KGBR-39" value="" style="group;movable=1;resizable=1;rotatable=1;deletable=1;editable=1;locked=0;connectable=1;" vertex="1" connectable="0" parent="1">
          <mxGeometry x="810" y="520" width="80" height="240" as="geometry" />
        </mxCell>
        <mxCell id="r1W-Itx97kBpwns0KGBR-40" value="&lt;font style=&quot;font-size: 24px;&quot;&gt;C&lt;/font&gt;" style="rounded=0;whiteSpace=wrap;html=1;movable=1;resizable=1;rotatable=1;deletable=1;editable=1;locked=0;connectable=1;" vertex="1" parent="r1W-Itx97kBpwns0KGBR-39">
          <mxGeometry y="160" width="80" height="80" as="geometry" />
        </mxCell>
        <mxCell id="r1W-Itx97kBpwns0KGBR-41" value="&lt;font style=&quot;font-size: 24px;&quot;&gt;B&lt;/font&gt;" style="rounded=0;whiteSpace=wrap;html=1;movable=1;resizable=1;rotatable=1;deletable=1;editable=1;locked=0;connectable=1;" vertex="1" parent="r1W-Itx97kBpwns0KGBR-39">
          <mxGeometry y="80" width="80" height="80" as="geometry" />
        </mxCell>
        <mxCell id="r1W-Itx97kBpwns0KGBR-42" value="&lt;font style=&quot;font-size: 24px;&quot;&gt;A&lt;/font&gt;" style="rounded=0;whiteSpace=wrap;html=1;movable=1;resizable=1;rotatable=1;deletable=1;editable=1;locked=0;connectable=1;" vertex="1" parent="r1W-Itx97kBpwns0KGBR-39">
          <mxGeometry width="80" height="80" as="geometry" />
        </mxCell>
        <mxCell id="r1W-Itx97kBpwns0KGBR-43" value="" style="shape=singleArrow;whiteSpace=wrap;html=1;arrowWidth=0.3;arrowSize=0.3142857142857143;fillColor=#f5f5f5;fontColor=#333333;strokeColor=#666666;" vertex="1" parent="1">
          <mxGeometry x="490" y="620" width="60" height="40" as="geometry" />
        </mxCell>
        <mxCell id="r1W-Itx97kBpwns0KGBR-45" value="" style="shape=singleArrow;whiteSpace=wrap;html=1;arrowWidth=0.3;arrowSize=0.3142857142857143;fillColor=#f5f5f5;fontColor=#333333;strokeColor=#666666;" vertex="1" parent="1">
          <mxGeometry x="740" y="620" width="60" height="40" as="geometry" />
        </mxCell>
        <mxCell id="r1W-Itx97kBpwns0KGBR-46" value="" style="shape=singleArrow;whiteSpace=wrap;html=1;fillColor=#d5e8d4;strokeColor=#82b366;movable=1;resizable=1;rotatable=1;deletable=1;editable=1;locked=0;connectable=1;arrowWidth=0.381818181818187;arrowSize=0.3795454545454561;" vertex="1" parent="1">
          <mxGeometry x="640" y="670" width="40" height="20" as="geometry" />
        </mxCell>
        <mxCell id="r1W-Itx97kBpwns0KGBR-47" value="" style="shape=singleArrow;whiteSpace=wrap;html=1;fillColor=#d5e8d4;strokeColor=#82b366;movable=1;resizable=1;rotatable=1;deletable=1;editable=1;locked=0;connectable=1;arrowWidth=0.381818181818187;arrowSize=0.3795454545454561;" vertex="1" parent="1">
          <mxGeometry x="590" y="670" width="40" height="20" as="geometry" />
        </mxCell>
        <mxCell id="r1W-Itx97kBpwns0KGBR-48" value="" style="shape=singleArrow;whiteSpace=wrap;html=1;fillColor=#d5e8d4;strokeColor=#82b366;movable=1;resizable=1;rotatable=1;deletable=1;editable=1;locked=0;connectable=1;arrowWidth=0.381818181818187;arrowSize=0.3795454545454561;" vertex="1" parent="1">
          <mxGeometry x="640" y="590" width="40" height="20" as="geometry" />
        </mxCell>
        <mxCell id="r1W-Itx97kBpwns0KGBR-49" value="" style="shape=singleArrow;whiteSpace=wrap;html=1;fillColor=#d5e8d4;strokeColor=#82b366;movable=1;resizable=1;rotatable=1;deletable=1;editable=1;locked=0;connectable=1;arrowWidth=0.381818181818187;arrowSize=0.3795454545454561;" vertex="1" parent="1">
          <mxGeometry x="590" y="590" width="40" height="20" as="geometry" />
        </mxCell>
        <mxCell id="r1W-Itx97kBpwns0KGBR-50" value="" style="group;movable=1;resizable=1;rotatable=1;deletable=1;editable=1;locked=0;connectable=1;fillColor=#b1ddf0;strokeColor=#10739e;" vertex="1" connectable="0" parent="1">
          <mxGeometry x="540" y="840" width="80" height="240" as="geometry" />
        </mxCell>
        <mxCell id="r1W-Itx97kBpwns0KGBR-51" value="&lt;font style=&quot;font-size: 24px;&quot;&gt;1&lt;/font&gt;" style="rounded=0;whiteSpace=wrap;html=1;movable=1;resizable=1;rotatable=1;deletable=1;editable=1;locked=0;connectable=1;fillColor=#b1ddf0;strokeColor=#10739e;" vertex="1" parent="r1W-Itx97kBpwns0KGBR-50">
          <mxGeometry y="160" width="80" height="80" as="geometry" />
        </mxCell>
        <mxCell id="r1W-Itx97kBpwns0KGBR-52" value="&lt;font style=&quot;font-size: 24px;&quot;&gt;1&lt;/font&gt;" style="rounded=0;whiteSpace=wrap;html=1;movable=1;resizable=1;rotatable=1;deletable=1;editable=1;locked=0;connectable=1;fillColor=#b1ddf0;strokeColor=#10739e;" vertex="1" parent="r1W-Itx97kBpwns0KGBR-50">
          <mxGeometry y="80" width="80" height="80" as="geometry" />
        </mxCell>
        <mxCell id="r1W-Itx97kBpwns0KGBR-53" value="&lt;font style=&quot;font-size: 24px;&quot;&gt;1&lt;/font&gt;" style="rounded=0;whiteSpace=wrap;html=1;movable=1;resizable=1;rotatable=1;deletable=1;editable=1;locked=0;connectable=1;fillColor=#b1ddf0;strokeColor=#10739e;" vertex="1" parent="r1W-Itx97kBpwns0KGBR-50">
          <mxGeometry width="80" height="80" as="geometry" />
        </mxCell>
        <mxCell id="r1W-Itx97kBpwns0KGBR-54" value="" style="shape=table;startSize=0;container=1;collapsible=0;childLayout=tableLayout;fontSize=24;" vertex="1" parent="1">
          <mxGeometry x="240" y="840" width="240" height="240" as="geometry" />
        </mxCell>
        <mxCell id="r1W-Itx97kBpwns0KGBR-55" value="" style="shape=tableRow;horizontal=0;startSize=0;swimlaneHead=0;swimlaneBody=0;strokeColor=inherit;top=0;left=0;bottom=0;right=0;collapsible=0;dropTarget=0;fillColor=none;points=[[0,0.5],[1,0.5]];portConstraint=eastwest;fontSize=24;" vertex="1" parent="r1W-Itx97kBpwns0KGBR-54">
          <mxGeometry width="240" height="80" as="geometry" />
        </mxCell>
        <mxCell id="r1W-Itx97kBpwns0KGBR-56" value="1" style="shape=partialRectangle;html=1;whiteSpace=wrap;connectable=0;strokeColor=inherit;overflow=hidden;fillColor=none;top=0;left=0;bottom=0;right=0;pointerEvents=1;fontSize=24;" vertex="1" parent="r1W-Itx97kBpwns0KGBR-55">
          <mxGeometry width="80" height="80" as="geometry">
            <mxRectangle width="80" height="80" as="alternateBounds" />
          </mxGeometry>
        </mxCell>
        <mxCell id="r1W-Itx97kBpwns0KGBR-57" value="0" style="shape=partialRectangle;html=1;whiteSpace=wrap;connectable=0;strokeColor=inherit;overflow=hidden;fillColor=none;top=0;left=0;bottom=0;right=0;pointerEvents=1;fontSize=24;" vertex="1" parent="r1W-Itx97kBpwns0KGBR-55">
          <mxGeometry x="80" width="80" height="80" as="geometry">
            <mxRectangle width="80" height="80" as="alternateBounds" />
          </mxGeometry>
        </mxCell>
        <mxCell id="r1W-Itx97kBpwns0KGBR-58" value="0" style="shape=partialRectangle;html=1;whiteSpace=wrap;connectable=0;strokeColor=inherit;overflow=hidden;fillColor=none;top=0;left=0;bottom=0;right=0;pointerEvents=1;fontSize=24;" vertex="1" parent="r1W-Itx97kBpwns0KGBR-55">
          <mxGeometry x="160" width="80" height="80" as="geometry">
            <mxRectangle width="80" height="80" as="alternateBounds" />
          </mxGeometry>
        </mxCell>
        <mxCell id="r1W-Itx97kBpwns0KGBR-59" value="" style="shape=tableRow;horizontal=0;startSize=0;swimlaneHead=0;swimlaneBody=0;strokeColor=inherit;top=0;left=0;bottom=0;right=0;collapsible=0;dropTarget=0;fillColor=none;points=[[0,0.5],[1,0.5]];portConstraint=eastwest;fontSize=24;" vertex="1" parent="r1W-Itx97kBpwns0KGBR-54">
          <mxGeometry y="80" width="240" height="80" as="geometry" />
        </mxCell>
        <mxCell id="r1W-Itx97kBpwns0KGBR-60" value="0" style="shape=partialRectangle;html=1;whiteSpace=wrap;connectable=0;strokeColor=inherit;overflow=hidden;fillColor=none;top=0;left=0;bottom=0;right=0;pointerEvents=1;fontSize=24;" vertex="1" parent="r1W-Itx97kBpwns0KGBR-59">
          <mxGeometry width="80" height="80" as="geometry">
            <mxRectangle width="80" height="80" as="alternateBounds" />
          </mxGeometry>
        </mxCell>
        <mxCell id="r1W-Itx97kBpwns0KGBR-61" value="0" style="shape=partialRectangle;html=1;whiteSpace=wrap;connectable=0;strokeColor=inherit;overflow=hidden;fillColor=none;top=0;left=0;bottom=0;right=0;pointerEvents=1;fontSize=24;" vertex="1" parent="r1W-Itx97kBpwns0KGBR-59">
          <mxGeometry x="80" width="80" height="80" as="geometry">
            <mxRectangle width="80" height="80" as="alternateBounds" />
          </mxGeometry>
        </mxCell>
        <mxCell id="r1W-Itx97kBpwns0KGBR-62" value="1" style="shape=partialRectangle;html=1;whiteSpace=wrap;connectable=0;strokeColor=inherit;overflow=hidden;fillColor=none;top=0;left=0;bottom=0;right=0;pointerEvents=1;fontSize=24;" vertex="1" parent="r1W-Itx97kBpwns0KGBR-59">
          <mxGeometry x="160" width="80" height="80" as="geometry">
            <mxRectangle width="80" height="80" as="alternateBounds" />
          </mxGeometry>
        </mxCell>
        <mxCell id="r1W-Itx97kBpwns0KGBR-63" value="" style="shape=tableRow;horizontal=0;startSize=0;swimlaneHead=0;swimlaneBody=0;strokeColor=inherit;top=0;left=0;bottom=0;right=0;collapsible=0;dropTarget=0;fillColor=none;points=[[0,0.5],[1,0.5]];portConstraint=eastwest;fontSize=24;" vertex="1" parent="r1W-Itx97kBpwns0KGBR-54">
          <mxGeometry y="160" width="240" height="80" as="geometry" />
        </mxCell>
        <mxCell id="r1W-Itx97kBpwns0KGBR-64" value="1" style="shape=partialRectangle;html=1;whiteSpace=wrap;connectable=0;strokeColor=inherit;overflow=hidden;fillColor=none;top=0;left=0;bottom=0;right=0;pointerEvents=1;fontSize=24;" vertex="1" parent="r1W-Itx97kBpwns0KGBR-63">
          <mxGeometry width="80" height="80" as="geometry">
            <mxRectangle width="80" height="80" as="alternateBounds" />
          </mxGeometry>
        </mxCell>
        <mxCell id="r1W-Itx97kBpwns0KGBR-65" value="0" style="shape=partialRectangle;html=1;whiteSpace=wrap;connectable=0;strokeColor=inherit;overflow=hidden;fillColor=none;top=0;left=0;bottom=0;right=0;pointerEvents=1;fontSize=24;" vertex="1" parent="r1W-Itx97kBpwns0KGBR-63">
          <mxGeometry x="80" width="80" height="80" as="geometry">
            <mxRectangle width="80" height="80" as="alternateBounds" />
          </mxGeometry>
        </mxCell>
        <mxCell id="r1W-Itx97kBpwns0KGBR-66" value="0" style="shape=partialRectangle;html=1;whiteSpace=wrap;connectable=0;strokeColor=inherit;overflow=hidden;fillColor=none;top=0;left=0;bottom=0;right=0;pointerEvents=1;fontSize=24;" vertex="1" parent="r1W-Itx97kBpwns0KGBR-63">
          <mxGeometry x="160" width="80" height="80" as="geometry">
            <mxRectangle width="80" height="80" as="alternateBounds" />
          </mxGeometry>
        </mxCell>
        <mxCell id="r1W-Itx97kBpwns0KGBR-67" value="&lt;font style=&quot;font-size: 24px;&quot;&gt;2&lt;/font&gt;" style="rounded=0;whiteSpace=wrap;html=1;movable=1;resizable=1;rotatable=1;deletable=1;editable=1;locked=0;connectable=1;fillColor=#fad7ac;strokeColor=#b46504;" vertex="1" parent="1">
          <mxGeometry x="240" y="1140" width="80" height="80" as="geometry" />
        </mxCell>
        <mxCell id="r1W-Itx97kBpwns0KGBR-68" value="&lt;font style=&quot;font-size: 24px;&quot;&gt;0&lt;/font&gt;" style="rounded=0;whiteSpace=wrap;html=1;movable=1;resizable=1;rotatable=1;deletable=1;editable=1;locked=0;connectable=1;fillColor=#fad7ac;strokeColor=#b46504;" vertex="1" parent="1">
          <mxGeometry x="320" y="1140" width="80" height="80" as="geometry" />
        </mxCell>
        <mxCell id="r1W-Itx97kBpwns0KGBR-69" value="&lt;font style=&quot;font-size: 24px;&quot;&gt;1&lt;/font&gt;" style="rounded=0;whiteSpace=wrap;html=1;movable=1;resizable=1;rotatable=1;deletable=1;editable=1;locked=0;connectable=1;fillColor=#fad7ac;strokeColor=#b46504;" vertex="1" parent="1">
          <mxGeometry x="400" y="1140" width="80" height="80" as="geometry" />
        </mxCell>
        <mxCell id="r1W-Itx97kBpwns0KGBR-70" value="" style="shape=singleArrow;whiteSpace=wrap;html=1;fillColor=#d5e8d4;strokeColor=#82b366;movable=1;resizable=1;rotatable=1;deletable=1;editable=1;locked=0;connectable=1;arrowWidth=0.381818181818187;arrowSize=0.3795454545454561;" vertex="1" parent="1">
          <mxGeometry x="490" y="870" width="40" height="30" as="geometry" />
        </mxCell>
        <mxCell id="r1W-Itx97kBpwns0KGBR-71" value="" style="shape=singleArrow;whiteSpace=wrap;html=1;fillColor=#d5e8d4;strokeColor=#82b366;movable=1;resizable=1;rotatable=1;deletable=1;editable=1;locked=0;connectable=1;arrowWidth=0.381818181818187;arrowSize=0.3795454545454561;" vertex="1" parent="1">
          <mxGeometry x="490" y="950" width="40" height="30" as="geometry" />
        </mxCell>
        <mxCell id="r1W-Itx97kBpwns0KGBR-72" value="" style="shape=singleArrow;whiteSpace=wrap;html=1;fillColor=#d5e8d4;strokeColor=#82b366;movable=1;resizable=1;rotatable=1;deletable=1;editable=1;locked=0;connectable=1;arrowWidth=0.381818181818187;arrowSize=0.3795454545454561;" vertex="1" parent="1">
          <mxGeometry x="490" y="1030" width="40" height="30" as="geometry" />
        </mxCell>
        <mxCell id="r1W-Itx97kBpwns0KGBR-73" value="" style="shape=singleArrow;whiteSpace=wrap;html=1;fillColor=#d5e8d4;strokeColor=#82b366;movable=1;resizable=1;rotatable=1;deletable=1;editable=1;locked=0;connectable=1;arrowWidth=0.381818181818187;arrowSize=0.3795454545454561;rotation=90;" vertex="1" parent="1">
          <mxGeometry x="260" y="1094" width="40" height="30" as="geometry" />
        </mxCell>
        <mxCell id="r1W-Itx97kBpwns0KGBR-74" value="" style="shape=singleArrow;whiteSpace=wrap;html=1;fillColor=#d5e8d4;strokeColor=#82b366;movable=1;resizable=1;rotatable=1;deletable=1;editable=1;locked=0;connectable=1;arrowWidth=0.381818181818187;arrowSize=0.3795454545454561;rotation=90;" vertex="1" parent="1">
          <mxGeometry x="340" y="1094" width="40" height="30" as="geometry" />
        </mxCell>
        <mxCell id="r1W-Itx97kBpwns0KGBR-75" value="" style="shape=singleArrow;whiteSpace=wrap;html=1;fillColor=#d5e8d4;strokeColor=#82b366;movable=1;resizable=1;rotatable=1;deletable=1;editable=1;locked=0;connectable=1;arrowWidth=0.381818181818187;arrowSize=0.3795454545454561;rotation=90;" vertex="1" parent="1">
          <mxGeometry x="420" y="1094" width="40" height="30" as="geometry" />
        </mxCell>
        <mxCell id="r1W-Itx97kBpwns0KGBR-115" value="&lt;b&gt;&lt;font style=&quot;font-size: 21px;&quot;&gt;countRow&lt;/font&gt;&lt;/b&gt;" style="text;html=1;strokeColor=none;fillColor=none;align=center;verticalAlign=middle;whiteSpace=wrap;rounded=0;" vertex="1" parent="1">
          <mxGeometry x="525" y="810" width="110" height="30" as="geometry" />
        </mxCell>
        <mxCell id="r1W-Itx97kBpwns0KGBR-116" value="&lt;b&gt;&lt;font style=&quot;font-size: 21px;&quot;&gt;countCol&lt;/font&gt;&lt;/b&gt;" style="text;html=1;strokeColor=none;fillColor=none;align=center;verticalAlign=middle;whiteSpace=wrap;rounded=0;" vertex="1" parent="1">
          <mxGeometry x="490" y="1165" width="100" height="30" as="geometry" />
        </mxCell>
        <mxCell id="r1W-Itx97kBpwns0KGBR-119" value="" style="group;movable=1;resizable=1;rotatable=1;deletable=1;editable=1;locked=0;connectable=1;fillColor=#b1ddf0;strokeColor=#10739e;" vertex="1" connectable="0" parent="1">
          <mxGeometry x="540" y="1270" width="80" height="240" as="geometry" />
        </mxCell>
        <mxCell id="r1W-Itx97kBpwns0KGBR-120" value="&lt;font style=&quot;font-size: 24px;&quot;&gt;1&lt;/font&gt;" style="rounded=0;whiteSpace=wrap;html=1;movable=1;resizable=1;rotatable=1;deletable=1;editable=1;locked=0;connectable=1;fillColor=#b1ddf0;strokeColor=#10739e;" vertex="1" parent="r1W-Itx97kBpwns0KGBR-119">
          <mxGeometry y="160" width="80" height="80" as="geometry" />
        </mxCell>
        <mxCell id="r1W-Itx97kBpwns0KGBR-121" value="&lt;font style=&quot;font-size: 24px;&quot;&gt;1&lt;/font&gt;" style="rounded=0;whiteSpace=wrap;html=1;movable=1;resizable=1;rotatable=1;deletable=1;editable=1;locked=0;connectable=1;fillColor=#b1ddf0;strokeColor=#10739e;" vertex="1" parent="r1W-Itx97kBpwns0KGBR-119">
          <mxGeometry y="80" width="80" height="80" as="geometry" />
        </mxCell>
        <mxCell id="r1W-Itx97kBpwns0KGBR-122" value="&lt;font style=&quot;font-size: 24px;&quot;&gt;1&lt;/font&gt;" style="rounded=0;whiteSpace=wrap;html=1;movable=1;resizable=1;rotatable=1;deletable=1;editable=1;locked=0;connectable=1;fillColor=#b1ddf0;strokeColor=#10739e;" vertex="1" parent="r1W-Itx97kBpwns0KGBR-119">
          <mxGeometry width="80" height="80" as="geometry" />
        </mxCell>
        <mxCell id="r1W-Itx97kBpwns0KGBR-123" value="" style="shape=table;startSize=0;container=1;collapsible=0;childLayout=tableLayout;fontSize=24;movable=1;resizable=1;rotatable=1;deletable=1;editable=1;locked=0;connectable=1;" vertex="1" parent="1">
          <mxGeometry x="240" y="1270" width="240" height="240" as="geometry" />
        </mxCell>
        <mxCell id="r1W-Itx97kBpwns0KGBR-124" value="" style="shape=tableRow;horizontal=0;startSize=0;swimlaneHead=0;swimlaneBody=0;strokeColor=inherit;top=0;left=0;bottom=0;right=0;collapsible=0;dropTarget=0;fillColor=none;points=[[0,0.5],[1,0.5]];portConstraint=eastwest;fontSize=24;movable=1;resizable=1;rotatable=1;deletable=1;editable=1;locked=0;connectable=1;" vertex="1" parent="r1W-Itx97kBpwns0KGBR-123">
          <mxGeometry width="240" height="80" as="geometry" />
        </mxCell>
        <mxCell id="r1W-Itx97kBpwns0KGBR-125" value="1" style="shape=partialRectangle;html=1;whiteSpace=wrap;connectable=1;strokeColor=inherit;overflow=hidden;fillColor=none;top=0;left=0;bottom=0;right=0;pointerEvents=1;fontSize=24;movable=1;resizable=1;rotatable=1;deletable=1;editable=1;locked=0;" vertex="1" parent="r1W-Itx97kBpwns0KGBR-124">
          <mxGeometry width="80" height="80" as="geometry">
            <mxRectangle width="80" height="80" as="alternateBounds" />
          </mxGeometry>
        </mxCell>
        <mxCell id="r1W-Itx97kBpwns0KGBR-126" value="0" style="shape=partialRectangle;html=1;whiteSpace=wrap;connectable=1;strokeColor=inherit;overflow=hidden;fillColor=none;top=0;left=0;bottom=0;right=0;pointerEvents=1;fontSize=24;movable=1;resizable=1;rotatable=1;deletable=1;editable=1;locked=0;fontColor=#CCCCCC;" vertex="1" parent="r1W-Itx97kBpwns0KGBR-124">
          <mxGeometry x="80" width="80" height="80" as="geometry">
            <mxRectangle width="80" height="80" as="alternateBounds" />
          </mxGeometry>
        </mxCell>
        <mxCell id="r1W-Itx97kBpwns0KGBR-127" value="0" style="shape=partialRectangle;html=1;whiteSpace=wrap;connectable=1;strokeColor=inherit;overflow=hidden;fillColor=none;top=0;left=0;bottom=0;right=0;pointerEvents=1;fontSize=24;movable=1;resizable=1;rotatable=1;deletable=1;editable=1;locked=0;fontColor=#CCCCCC;" vertex="1" parent="r1W-Itx97kBpwns0KGBR-124">
          <mxGeometry x="160" width="80" height="80" as="geometry">
            <mxRectangle width="80" height="80" as="alternateBounds" />
          </mxGeometry>
        </mxCell>
        <mxCell id="r1W-Itx97kBpwns0KGBR-128" value="" style="shape=tableRow;horizontal=0;startSize=0;swimlaneHead=0;swimlaneBody=0;strokeColor=inherit;top=0;left=0;bottom=0;right=0;collapsible=0;dropTarget=0;fillColor=none;points=[[0,0.5],[1,0.5]];portConstraint=eastwest;fontSize=24;movable=1;resizable=1;rotatable=1;deletable=1;editable=1;locked=0;connectable=1;" vertex="1" parent="r1W-Itx97kBpwns0KGBR-123">
          <mxGeometry y="80" width="240" height="80" as="geometry" />
        </mxCell>
        <mxCell id="r1W-Itx97kBpwns0KGBR-129" value="0" style="shape=partialRectangle;html=1;whiteSpace=wrap;connectable=1;strokeColor=inherit;overflow=hidden;fillColor=none;top=0;left=0;bottom=0;right=0;pointerEvents=1;fontSize=24;movable=1;resizable=1;rotatable=1;deletable=1;editable=1;locked=0;fontColor=#CCCCCC;" vertex="1" parent="r1W-Itx97kBpwns0KGBR-128">
          <mxGeometry width="80" height="80" as="geometry">
            <mxRectangle width="80" height="80" as="alternateBounds" />
          </mxGeometry>
        </mxCell>
        <mxCell id="r1W-Itx97kBpwns0KGBR-130" value="0" style="shape=partialRectangle;html=1;whiteSpace=wrap;connectable=1;strokeColor=inherit;overflow=hidden;fillColor=none;top=0;left=0;bottom=0;right=0;pointerEvents=1;fontSize=24;movable=1;resizable=1;rotatable=1;deletable=1;editable=1;locked=0;fontColor=#CCCCCC;" vertex="1" parent="r1W-Itx97kBpwns0KGBR-128">
          <mxGeometry x="80" width="80" height="80" as="geometry">
            <mxRectangle width="80" height="80" as="alternateBounds" />
          </mxGeometry>
        </mxCell>
        <mxCell id="r1W-Itx97kBpwns0KGBR-131" value="1" style="shape=partialRectangle;html=1;whiteSpace=wrap;connectable=1;strokeColor=inherit;overflow=hidden;fillColor=none;top=0;left=0;bottom=0;right=0;pointerEvents=1;fontSize=24;movable=1;resizable=1;rotatable=1;deletable=1;editable=1;locked=0;" vertex="1" parent="r1W-Itx97kBpwns0KGBR-128">
          <mxGeometry x="160" width="80" height="80" as="geometry">
            <mxRectangle width="80" height="80" as="alternateBounds" />
          </mxGeometry>
        </mxCell>
        <mxCell id="r1W-Itx97kBpwns0KGBR-132" value="" style="shape=tableRow;horizontal=0;startSize=0;swimlaneHead=0;swimlaneBody=0;strokeColor=inherit;top=0;left=0;bottom=0;right=0;collapsible=0;dropTarget=0;fillColor=none;points=[[0,0.5],[1,0.5]];portConstraint=eastwest;fontSize=24;movable=1;resizable=1;rotatable=1;deletable=1;editable=1;locked=0;connectable=1;" vertex="1" parent="r1W-Itx97kBpwns0KGBR-123">
          <mxGeometry y="160" width="240" height="80" as="geometry" />
        </mxCell>
        <mxCell id="r1W-Itx97kBpwns0KGBR-133" value="1" style="shape=partialRectangle;html=1;whiteSpace=wrap;connectable=1;strokeColor=inherit;overflow=hidden;fillColor=none;top=0;left=0;bottom=0;right=0;pointerEvents=1;fontSize=24;movable=1;resizable=1;rotatable=1;deletable=1;editable=1;locked=0;" vertex="1" parent="r1W-Itx97kBpwns0KGBR-132">
          <mxGeometry width="80" height="80" as="geometry">
            <mxRectangle width="80" height="80" as="alternateBounds" />
          </mxGeometry>
        </mxCell>
        <mxCell id="r1W-Itx97kBpwns0KGBR-134" value="0" style="shape=partialRectangle;html=1;whiteSpace=wrap;connectable=1;strokeColor=inherit;overflow=hidden;fillColor=none;top=0;left=0;bottom=0;right=0;pointerEvents=1;fontSize=24;movable=1;resizable=1;rotatable=1;deletable=1;editable=1;locked=0;fontColor=#CCCCCC;" vertex="1" parent="r1W-Itx97kBpwns0KGBR-132">
          <mxGeometry x="80" width="80" height="80" as="geometry">
            <mxRectangle width="80" height="80" as="alternateBounds" />
          </mxGeometry>
        </mxCell>
        <mxCell id="r1W-Itx97kBpwns0KGBR-135" value="0" style="shape=partialRectangle;html=1;whiteSpace=wrap;connectable=1;strokeColor=inherit;overflow=hidden;fillColor=none;top=0;left=0;bottom=0;right=0;pointerEvents=1;fontSize=24;movable=1;resizable=1;rotatable=1;deletable=1;editable=1;locked=0;fontColor=#CCCCCC;" vertex="1" parent="r1W-Itx97kBpwns0KGBR-132">
          <mxGeometry x="160" width="80" height="80" as="geometry">
            <mxRectangle width="80" height="80" as="alternateBounds" />
          </mxGeometry>
        </mxCell>
        <mxCell id="r1W-Itx97kBpwns0KGBR-136" value="&lt;font style=&quot;font-size: 24px;&quot;&gt;2&lt;/font&gt;" style="rounded=0;whiteSpace=wrap;html=1;movable=1;resizable=1;rotatable=1;deletable=1;editable=1;locked=0;connectable=1;fillColor=#fad7ac;strokeColor=#b46504;" vertex="1" parent="1">
          <mxGeometry x="240" y="1570" width="80" height="80" as="geometry" />
        </mxCell>
        <mxCell id="r1W-Itx97kBpwns0KGBR-137" value="&lt;font style=&quot;font-size: 24px;&quot;&gt;0&lt;/font&gt;" style="rounded=0;whiteSpace=wrap;html=1;movable=1;resizable=1;rotatable=1;deletable=1;editable=1;locked=0;connectable=1;fillColor=#fad7ac;strokeColor=#b46504;" vertex="1" parent="1">
          <mxGeometry x="320" y="1570" width="80" height="80" as="geometry" />
        </mxCell>
        <mxCell id="r1W-Itx97kBpwns0KGBR-138" value="&lt;font style=&quot;font-size: 24px;&quot;&gt;1&lt;/font&gt;" style="rounded=0;whiteSpace=wrap;html=1;movable=1;resizable=1;rotatable=1;deletable=1;editable=1;locked=0;connectable=1;fillColor=#fad7ac;strokeColor=#b46504;" vertex="1" parent="1">
          <mxGeometry x="400" y="1570" width="80" height="80" as="geometry" />
        </mxCell>
        <mxCell id="r1W-Itx97kBpwns0KGBR-145" value="&lt;b&gt;&lt;font style=&quot;font-size: 21px;&quot;&gt;countRow&lt;/font&gt;&lt;/b&gt;" style="text;html=1;strokeColor=none;fillColor=none;align=center;verticalAlign=middle;whiteSpace=wrap;rounded=0;" vertex="1" parent="1">
          <mxGeometry x="525" y="1240" width="110" height="30" as="geometry" />
        </mxCell>
        <mxCell id="r1W-Itx97kBpwns0KGBR-146" value="&lt;b&gt;&lt;font style=&quot;font-size: 21px;&quot;&gt;countCol&lt;/font&gt;&lt;/b&gt;" style="text;html=1;strokeColor=none;fillColor=none;align=center;verticalAlign=middle;whiteSpace=wrap;rounded=0;" vertex="1" parent="1">
          <mxGeometry x="490" y="1595" width="100" height="30" as="geometry" />
        </mxCell>
        <mxCell id="r1W-Itx97kBpwns0KGBR-147" value="&lt;font style=&quot;font-size: 17px;&quot;&gt;[0,0]&lt;/font&gt;" style="text;html=1;strokeColor=none;fillColor=none;align=center;verticalAlign=middle;whiteSpace=wrap;rounded=0;movable=1;resizable=1;rotatable=1;deletable=1;editable=1;locked=0;connectable=1;" vertex="1" parent="1">
          <mxGeometry x="250" y="1320" width="60" height="30" as="geometry" />
        </mxCell>
        <mxCell id="r1W-Itx97kBpwns0KGBR-148" value="&lt;font style=&quot;font-size: 17px;&quot;&gt;[1,2]&lt;/font&gt;" style="text;html=1;strokeColor=none;fillColor=none;align=center;verticalAlign=middle;whiteSpace=wrap;rounded=0;movable=1;resizable=1;rotatable=1;deletable=1;editable=1;locked=0;connectable=1;" vertex="1" parent="1">
          <mxGeometry x="410" y="1400" width="60" height="30" as="geometry" />
        </mxCell>
        <mxCell id="r1W-Itx97kBpwns0KGBR-149" value="&lt;font style=&quot;font-size: 17px;&quot;&gt;[2,0]&lt;/font&gt;" style="text;html=1;strokeColor=none;fillColor=none;align=center;verticalAlign=middle;whiteSpace=wrap;rounded=0;movable=1;resizable=1;rotatable=1;deletable=1;editable=1;locked=0;connectable=1;" vertex="1" parent="1">
          <mxGeometry x="250" y="1480" width="60" height="30" as="geometry" />
        </mxCell>
        <mxCell id="r1W-Itx97kBpwns0KGBR-150" value="" style="edgeStyle=elbowEdgeStyle;elbow=vertical;endArrow=classic;html=1;curved=0;rounded=0;endSize=8;startSize=8;" edge="1" parent="1">
          <mxGeometry width="50" height="50" relative="1" as="geometry">
            <mxPoint x="290" y="1290" as="sourcePoint" />
            <mxPoint x="530" y="1290" as="targetPoint" />
            <Array as="points">
              <mxPoint x="320" y="1290" />
            </Array>
          </mxGeometry>
        </mxCell>
        <mxCell id="r1W-Itx97kBpwns0KGBR-151" value="" style="elbow=vertical;endArrow=classic;html=1;rounded=0;endSize=8;startSize=8;" edge="1" parent="1">
          <mxGeometry width="50" height="50" relative="1" as="geometry">
            <mxPoint x="260" y="1310" as="sourcePoint" />
            <mxPoint x="260" y="1560" as="targetPoint" />
          </mxGeometry>
        </mxCell>
        <mxCell id="r1W-Itx97kBpwns0KGBR-152" value="" style="elbow=vertical;endArrow=classic;html=1;rounded=0;endSize=8;startSize=8;" edge="1" parent="1">
          <mxGeometry width="50" height="50" relative="1" as="geometry">
            <mxPoint x="300" y="1470" as="sourcePoint" />
            <mxPoint x="300" y="1560" as="targetPoint" />
          </mxGeometry>
        </mxCell>
        <mxCell id="r1W-Itx97kBpwns0KGBR-153" value="" style="elbow=vertical;endArrow=classic;html=1;rounded=0;endSize=8;startSize=8;" edge="1" parent="1">
          <mxGeometry width="50" height="50" relative="1" as="geometry">
            <mxPoint x="300" y="1460" as="sourcePoint" />
            <mxPoint x="520" y="1460" as="targetPoint" />
          </mxGeometry>
        </mxCell>
        <mxCell id="r1W-Itx97kBpwns0KGBR-154" value="" style="elbow=vertical;endArrow=classic;html=1;rounded=0;endSize=8;startSize=8;fillColor=#60a917;strokeColor=#2D7600;strokeWidth=2;" edge="1" parent="1">
          <mxGeometry width="50" height="50" relative="1" as="geometry">
            <mxPoint x="460" y="1390" as="sourcePoint" />
            <mxPoint x="530" y="1390" as="targetPoint" />
          </mxGeometry>
        </mxCell>
        <mxCell id="r1W-Itx97kBpwns0KGBR-155" value="" style="elbow=vertical;endArrow=classic;html=1;rounded=0;endSize=8;startSize=8;fillColor=#60a917;strokeColor=#2D7600;strokeWidth=2;" edge="1" parent="1">
          <mxGeometry width="50" height="50" relative="1" as="geometry">
            <mxPoint x="420" y="1400" as="sourcePoint" />
            <mxPoint x="420" y="1560" as="targetPoint" />
          </mxGeometry>
        </mxCell>
        <mxCell id="r1W-Itx97kBpwns0KGBR-156" value="" style="verticalLabelPosition=bottom;verticalAlign=top;html=1;shape=mxgraph.basic.tick;fillColor=#60a917;fontColor=#ffffff;strokeColor=#2D7600;" vertex="1" parent="1">
          <mxGeometry x="440" y="1400" width="40" height="40" as="geometry" />
        </mxCell>
        <mxCell id="r1W-Itx97kBpwns0KGBR-157" value="" style="group;movable=1;resizable=1;rotatable=1;deletable=1;editable=1;locked=0;connectable=1;fillColor=#b1ddf0;strokeColor=#10739e;" vertex="1" connectable="0" parent="1">
          <mxGeometry x="980" y="840" width="80" height="240" as="geometry" />
        </mxCell>
        <mxCell id="r1W-Itx97kBpwns0KGBR-158" value="&lt;font style=&quot;font-size: 24px;&quot;&gt;1&lt;/font&gt;" style="rounded=0;whiteSpace=wrap;html=1;movable=1;resizable=1;rotatable=1;deletable=1;editable=1;locked=0;connectable=1;fillColor=#b1ddf0;strokeColor=#10739e;" vertex="1" parent="r1W-Itx97kBpwns0KGBR-157">
          <mxGeometry y="160" width="80" height="80" as="geometry" />
        </mxCell>
        <mxCell id="r1W-Itx97kBpwns0KGBR-159" value="&lt;font style=&quot;font-size: 24px;&quot;&gt;2&lt;/font&gt;" style="rounded=0;whiteSpace=wrap;html=1;movable=1;resizable=1;rotatable=1;deletable=1;editable=1;locked=0;connectable=1;fillColor=#b1ddf0;strokeColor=#10739e;" vertex="1" parent="r1W-Itx97kBpwns0KGBR-157">
          <mxGeometry y="80" width="80" height="80" as="geometry" />
        </mxCell>
        <mxCell id="r1W-Itx97kBpwns0KGBR-160" value="&lt;font style=&quot;font-size: 24px;&quot;&gt;2&lt;/font&gt;" style="rounded=0;whiteSpace=wrap;html=1;movable=1;resizable=1;rotatable=1;deletable=1;editable=1;locked=0;connectable=1;fillColor=#b1ddf0;strokeColor=#10739e;" vertex="1" parent="r1W-Itx97kBpwns0KGBR-157">
          <mxGeometry width="80" height="80" as="geometry" />
        </mxCell>
        <mxCell id="r1W-Itx97kBpwns0KGBR-161" value="" style="shape=table;startSize=0;container=1;collapsible=0;childLayout=tableLayout;fontSize=24;" vertex="1" parent="1">
          <mxGeometry x="680" y="840" width="240" height="240" as="geometry" />
        </mxCell>
        <mxCell id="r1W-Itx97kBpwns0KGBR-162" value="" style="shape=tableRow;horizontal=0;startSize=0;swimlaneHead=0;swimlaneBody=0;strokeColor=inherit;top=0;left=0;bottom=0;right=0;collapsible=0;dropTarget=0;fillColor=none;points=[[0,0.5],[1,0.5]];portConstraint=eastwest;fontSize=24;" vertex="1" parent="r1W-Itx97kBpwns0KGBR-161">
          <mxGeometry width="240" height="80" as="geometry" />
        </mxCell>
        <mxCell id="r1W-Itx97kBpwns0KGBR-163" value="0" style="shape=partialRectangle;html=1;whiteSpace=wrap;connectable=0;strokeColor=inherit;overflow=hidden;fillColor=none;top=0;left=0;bottom=0;right=0;pointerEvents=1;fontSize=24;" vertex="1" parent="r1W-Itx97kBpwns0KGBR-162">
          <mxGeometry width="80" height="80" as="geometry">
            <mxRectangle width="80" height="80" as="alternateBounds" />
          </mxGeometry>
        </mxCell>
        <mxCell id="r1W-Itx97kBpwns0KGBR-164" value="1" style="shape=partialRectangle;html=1;whiteSpace=wrap;connectable=0;strokeColor=inherit;overflow=hidden;fillColor=none;top=0;left=0;bottom=0;right=0;pointerEvents=1;fontSize=24;" vertex="1" parent="r1W-Itx97kBpwns0KGBR-162">
          <mxGeometry x="80" width="80" height="80" as="geometry">
            <mxRectangle width="80" height="80" as="alternateBounds" />
          </mxGeometry>
        </mxCell>
        <mxCell id="r1W-Itx97kBpwns0KGBR-165" value="1" style="shape=partialRectangle;html=1;whiteSpace=wrap;connectable=0;strokeColor=inherit;overflow=hidden;fillColor=none;top=0;left=0;bottom=0;right=0;pointerEvents=1;fontSize=24;" vertex="1" parent="r1W-Itx97kBpwns0KGBR-162">
          <mxGeometry x="160" width="80" height="80" as="geometry">
            <mxRectangle width="80" height="80" as="alternateBounds" />
          </mxGeometry>
        </mxCell>
        <mxCell id="r1W-Itx97kBpwns0KGBR-166" value="" style="shape=tableRow;horizontal=0;startSize=0;swimlaneHead=0;swimlaneBody=0;strokeColor=inherit;top=0;left=0;bottom=0;right=0;collapsible=0;dropTarget=0;fillColor=none;points=[[0,0.5],[1,0.5]];portConstraint=eastwest;fontSize=24;" vertex="1" parent="r1W-Itx97kBpwns0KGBR-161">
          <mxGeometry y="80" width="240" height="80" as="geometry" />
        </mxCell>
        <mxCell id="r1W-Itx97kBpwns0KGBR-167" value="1" style="shape=partialRectangle;html=1;whiteSpace=wrap;connectable=0;strokeColor=inherit;overflow=hidden;fillColor=none;top=0;left=0;bottom=0;right=0;pointerEvents=1;fontSize=24;" vertex="1" parent="r1W-Itx97kBpwns0KGBR-166">
          <mxGeometry width="80" height="80" as="geometry">
            <mxRectangle width="80" height="80" as="alternateBounds" />
          </mxGeometry>
        </mxCell>
        <mxCell id="r1W-Itx97kBpwns0KGBR-168" value="0" style="shape=partialRectangle;html=1;whiteSpace=wrap;connectable=0;strokeColor=inherit;overflow=hidden;fillColor=none;top=0;left=0;bottom=0;right=0;pointerEvents=1;fontSize=24;" vertex="1" parent="r1W-Itx97kBpwns0KGBR-166">
          <mxGeometry x="80" width="80" height="80" as="geometry">
            <mxRectangle width="80" height="80" as="alternateBounds" />
          </mxGeometry>
        </mxCell>
        <mxCell id="r1W-Itx97kBpwns0KGBR-169" value="1" style="shape=partialRectangle;html=1;whiteSpace=wrap;connectable=0;strokeColor=inherit;overflow=hidden;fillColor=none;top=0;left=0;bottom=0;right=0;pointerEvents=1;fontSize=24;" vertex="1" parent="r1W-Itx97kBpwns0KGBR-166">
          <mxGeometry x="160" width="80" height="80" as="geometry">
            <mxRectangle width="80" height="80" as="alternateBounds" />
          </mxGeometry>
        </mxCell>
        <mxCell id="r1W-Itx97kBpwns0KGBR-170" value="" style="shape=tableRow;horizontal=0;startSize=0;swimlaneHead=0;swimlaneBody=0;strokeColor=inherit;top=0;left=0;bottom=0;right=0;collapsible=0;dropTarget=0;fillColor=none;points=[[0,0.5],[1,0.5]];portConstraint=eastwest;fontSize=24;" vertex="1" parent="r1W-Itx97kBpwns0KGBR-161">
          <mxGeometry y="160" width="240" height="80" as="geometry" />
        </mxCell>
        <mxCell id="r1W-Itx97kBpwns0KGBR-171" value="0" style="shape=partialRectangle;html=1;whiteSpace=wrap;connectable=0;strokeColor=inherit;overflow=hidden;fillColor=none;top=0;left=0;bottom=0;right=0;pointerEvents=1;fontSize=24;" vertex="1" parent="r1W-Itx97kBpwns0KGBR-170">
          <mxGeometry width="80" height="80" as="geometry">
            <mxRectangle width="80" height="80" as="alternateBounds" />
          </mxGeometry>
        </mxCell>
        <mxCell id="r1W-Itx97kBpwns0KGBR-172" value="0" style="shape=partialRectangle;html=1;whiteSpace=wrap;connectable=0;strokeColor=inherit;overflow=hidden;fillColor=none;top=0;left=0;bottom=0;right=0;pointerEvents=1;fontSize=24;" vertex="1" parent="r1W-Itx97kBpwns0KGBR-170">
          <mxGeometry x="80" width="80" height="80" as="geometry">
            <mxRectangle width="80" height="80" as="alternateBounds" />
          </mxGeometry>
        </mxCell>
        <mxCell id="r1W-Itx97kBpwns0KGBR-173" value="1" style="shape=partialRectangle;html=1;whiteSpace=wrap;connectable=0;strokeColor=inherit;overflow=hidden;fillColor=none;top=0;left=0;bottom=0;right=0;pointerEvents=1;fontSize=24;" vertex="1" parent="r1W-Itx97kBpwns0KGBR-170">
          <mxGeometry x="160" width="80" height="80" as="geometry">
            <mxRectangle width="80" height="80" as="alternateBounds" />
          </mxGeometry>
        </mxCell>
        <mxCell id="r1W-Itx97kBpwns0KGBR-174" value="&lt;font style=&quot;font-size: 24px;&quot;&gt;1&lt;/font&gt;" style="rounded=0;whiteSpace=wrap;html=1;movable=1;resizable=1;rotatable=1;deletable=1;editable=1;locked=0;connectable=1;fillColor=#fad7ac;strokeColor=#b46504;" vertex="1" parent="1">
          <mxGeometry x="680" y="1140" width="80" height="80" as="geometry" />
        </mxCell>
        <mxCell id="r1W-Itx97kBpwns0KGBR-175" value="&lt;font style=&quot;font-size: 24px;&quot;&gt;1&lt;/font&gt;" style="rounded=0;whiteSpace=wrap;html=1;movable=1;resizable=1;rotatable=1;deletable=1;editable=1;locked=0;connectable=1;fillColor=#fad7ac;strokeColor=#b46504;" vertex="1" parent="1">
          <mxGeometry x="760" y="1140" width="80" height="80" as="geometry" />
        </mxCell>
        <mxCell id="r1W-Itx97kBpwns0KGBR-176" value="&lt;font style=&quot;font-size: 24px;&quot;&gt;3&lt;/font&gt;" style="rounded=0;whiteSpace=wrap;html=1;movable=1;resizable=1;rotatable=1;deletable=1;editable=1;locked=0;connectable=1;fillColor=#fad7ac;strokeColor=#b46504;" vertex="1" parent="1">
          <mxGeometry x="840" y="1140" width="80" height="80" as="geometry" />
        </mxCell>
        <mxCell id="r1W-Itx97kBpwns0KGBR-177" value="" style="shape=singleArrow;whiteSpace=wrap;html=1;fillColor=#d5e8d4;strokeColor=#82b366;movable=1;resizable=1;rotatable=1;deletable=1;editable=1;locked=0;connectable=1;arrowWidth=0.381818181818187;arrowSize=0.3795454545454561;" vertex="1" parent="1">
          <mxGeometry x="930" y="870" width="40" height="30" as="geometry" />
        </mxCell>
        <mxCell id="r1W-Itx97kBpwns0KGBR-178" value="" style="shape=singleArrow;whiteSpace=wrap;html=1;fillColor=#d5e8d4;strokeColor=#82b366;movable=1;resizable=1;rotatable=1;deletable=1;editable=1;locked=0;connectable=1;arrowWidth=0.381818181818187;arrowSize=0.3795454545454561;" vertex="1" parent="1">
          <mxGeometry x="930" y="950" width="40" height="30" as="geometry" />
        </mxCell>
        <mxCell id="r1W-Itx97kBpwns0KGBR-179" value="" style="shape=singleArrow;whiteSpace=wrap;html=1;fillColor=#d5e8d4;strokeColor=#82b366;movable=1;resizable=1;rotatable=1;deletable=1;editable=1;locked=0;connectable=1;arrowWidth=0.381818181818187;arrowSize=0.3795454545454561;" vertex="1" parent="1">
          <mxGeometry x="930" y="1030" width="40" height="30" as="geometry" />
        </mxCell>
        <mxCell id="r1W-Itx97kBpwns0KGBR-180" value="" style="shape=singleArrow;whiteSpace=wrap;html=1;fillColor=#d5e8d4;strokeColor=#82b366;movable=1;resizable=1;rotatable=1;deletable=1;editable=1;locked=0;connectable=1;arrowWidth=0.381818181818187;arrowSize=0.3795454545454561;rotation=90;" vertex="1" parent="1">
          <mxGeometry x="700" y="1094" width="40" height="30" as="geometry" />
        </mxCell>
        <mxCell id="r1W-Itx97kBpwns0KGBR-181" value="" style="shape=singleArrow;whiteSpace=wrap;html=1;fillColor=#d5e8d4;strokeColor=#82b366;movable=1;resizable=1;rotatable=1;deletable=1;editable=1;locked=0;connectable=1;arrowWidth=0.381818181818187;arrowSize=0.3795454545454561;rotation=90;" vertex="1" parent="1">
          <mxGeometry x="780" y="1094" width="40" height="30" as="geometry" />
        </mxCell>
        <mxCell id="r1W-Itx97kBpwns0KGBR-182" value="" style="shape=singleArrow;whiteSpace=wrap;html=1;fillColor=#d5e8d4;strokeColor=#82b366;movable=1;resizable=1;rotatable=1;deletable=1;editable=1;locked=0;connectable=1;arrowWidth=0.381818181818187;arrowSize=0.3795454545454561;rotation=90;" vertex="1" parent="1">
          <mxGeometry x="860" y="1094" width="40" height="30" as="geometry" />
        </mxCell>
        <mxCell id="r1W-Itx97kBpwns0KGBR-183" value="&lt;span style=&quot;font-size: 21px;&quot;&gt;&lt;b&gt;onesRow&lt;/b&gt;&lt;/span&gt;" style="text;html=1;strokeColor=none;fillColor=none;align=center;verticalAlign=middle;whiteSpace=wrap;rounded=0;" vertex="1" parent="1">
          <mxGeometry x="965" y="810" width="110" height="30" as="geometry" />
        </mxCell>
        <mxCell id="r1W-Itx97kBpwns0KGBR-184" value="&lt;b&gt;&lt;font style=&quot;font-size: 21px;&quot;&gt;onesCol&lt;/font&gt;&lt;/b&gt;" style="text;html=1;strokeColor=none;fillColor=none;align=center;verticalAlign=middle;whiteSpace=wrap;rounded=0;" vertex="1" parent="1">
          <mxGeometry x="930" y="1165" width="100" height="30" as="geometry" />
        </mxCell>
      </root>
    </mxGraphModel>
  </diagram>
</mxfile>
